<mxfile host="app.diagrams.net" agent="Mozilla/5.0 (Windows NT 10.0; Win64; x64) AppleWebKit/537.36 (KHTML, like Gecko) Chrome/130.0.0.0 Safari/537.36 Edg/130.0.0.0" version="24.8.3">
  <diagram name="第 1 页" id="2Qtf2TfKMaCRVAC8RnDl">
    <mxGraphModel dx="1317" dy="795" grid="1" gridSize="10" guides="1" tooltips="1" connect="1" arrows="1" fold="1" page="1" pageScale="1" pageWidth="827" pageHeight="1169" math="0" shadow="0">
      <root>
        <mxCell id="0" />
        <mxCell id="1" parent="0" />
        <mxCell id="_gRvz2yE6ncRrnQPeoz6-1" value="EventBus&amp;lt;IEvent&amp;gt;" style="rounded=1;whiteSpace=wrap;html=1;" parent="1" vertex="1">
          <mxGeometry x="100" y="330" width="120" height="60" as="geometry" />
        </mxCell>
        <mxCell id="YDzi-c-VY071Em2HL-_W-1" value="" style="shape=curlyBracket;whiteSpace=wrap;html=1;rounded=1;labelPosition=left;verticalLabelPosition=middle;align=right;verticalAlign=middle;" parent="1" vertex="1">
          <mxGeometry x="230" y="300" width="20" height="120" as="geometry" />
        </mxCell>
        <mxCell id="YDzi-c-VY071Em2HL-_W-2" value="EventBinding&amp;lt;IEvent&amp;gt;" style="rounded=0;whiteSpace=wrap;html=1;" parent="1" vertex="1">
          <mxGeometry x="260" y="280" width="130" height="40" as="geometry" />
        </mxCell>
        <mxCell id="YDzi-c-VY071Em2HL-_W-3" value="EventBinding" style="rounded=0;whiteSpace=wrap;html=1;" parent="1" vertex="1">
          <mxGeometry x="260" y="330" width="130" height="40" as="geometry" />
        </mxCell>
        <mxCell id="YDzi-c-VY071Em2HL-_W-4" value="EventBinding" style="rounded=0;whiteSpace=wrap;html=1;" parent="1" vertex="1">
          <mxGeometry x="260" y="380" width="130" height="40" as="geometry" />
        </mxCell>
        <mxCell id="YDzi-c-VY071Em2HL-_W-7" value="" style="shape=curlyBracket;whiteSpace=wrap;html=1;rounded=1;labelPosition=left;verticalLabelPosition=middle;align=right;verticalAlign=middle;" parent="1" vertex="1">
          <mxGeometry x="394" y="240" width="20" height="120" as="geometry" />
        </mxCell>
        <mxCell id="YDzi-c-VY071Em2HL-_W-8" value="IEvent" style="rounded=0;whiteSpace=wrap;html=1;" parent="1" vertex="1">
          <mxGeometry x="420" y="250" width="130" height="40" as="geometry" />
        </mxCell>
        <mxCell id="YDzi-c-VY071Em2HL-_W-9" value="&lt;div&gt;Handler&lt;/div&gt;" style="rounded=0;whiteSpace=wrap;html=1;" parent="1" vertex="1">
          <mxGeometry x="420" y="310" width="130" height="40" as="geometry" />
        </mxCell>
      </root>
    </mxGraphModel>
  </diagram>
</mxfile>
